<?xml version="1.0" standalone="no"?>
<!DOCTYPE svg PUBLIC "-//W3C//DTD SVG 20010904//EN"
 "http://www.w3.org/TR/2001/REC-SVG-20010904/DTD/svg10.dtd">
<svg version="1.0" xmlns="http://www.w3.org/2000/svg"
 width="1004.000000pt" height="1004.000000pt" viewBox="0 0 1004.000000 1004.000000"
 preserveAspectRatio="xMidYMid meet">
<metadata>
Created by potrace 1.11, written by Peter Selinger 2001-2013
</metadata>
<g transform="translate(0.000000,1004.000000) scale(0.100000,-0.100000)"
fill="#000000" stroke="none">
<path d="M849 9466 c-3 -3 -27 -8 -54 -11 -130 -16 -279 -73 -394 -150 -100
-66 -218 -187 -248 -255 -4 -8 -10 -17 -13 -20 -15 -11 -104 -210 -99 -223 1
-1 -4 -20 -9 -42 -6 -22 -14 -56 -19 -75 -4 -19 -9 -1855 -10 -4079 l-3 -4044
22 29 c13 16 30 36 38 45 8 8 35 39 60 69 25 29 56 65 70 81 14 16 41 47 60
70 19 22 42 48 50 58 8 9 42 48 75 86 33 38 68 79 79 90 10 11 25 30 33 43 14
20 16 428 17 3740 l2 3717 30 71 c35 81 39 87 115 164 54 55 145 109 214 126
17 4 1880 9 4141 10 3488 1 4120 0 4165 -12 166 -43 280 -152 351 -334 11 -29
13 -584 13 -3300 -1 -1796 -4 -3276 -7 -3290 -23 -92 -66 -168 -134 -235 -58
-58 -151 -115 -185 -115 -9 0 -19 -3 -23 -7 -3 -4 -14 -9 -24 -11 -9 -2 -1687
-5 -3729 -6 l-3711 -2 -241 -241 c-133 -132 -241 -245 -241 -249 0 -5 1736
-10 3980 -11 2189 -1 3980 1 3980 5 0 4 12 7 28 8 44 1 116 15 128 25 6 5 14
6 17 2 4 -3 13 0 22 7 8 7 15 9 15 4 0 -4 5 -3 12 4 7 7 18 12 26 12 18 0 176
80 180 91 2 5 8 9 13 9 29 0 176 147 234 235 82 124 127 244 154 410 11 65 9
6669 -1 6717 -3 14 -9 36 -13 48 -4 12 -8 32 -10 43 -13 106 -124 311 -223
414 -37 39 -137 123 -147 123 -4 0 -27 14 -52 30 -24 17 -48 30 -54 30 -5 0
-27 9 -47 19 -55 28 -152 54 -263 70 -63 10 -8361 16 -8370 7z"/>
<path d="M2109 7756 c-1 -6 -2 -68 -3 -139 l-1 -127 140 1 c77 0 155 0 173 0
l32 -1 0 -553 0 -553 140 -1 140 0 0 553 0 554 23 1 c12 0 83 0 157 0 74 0
142 2 150 4 12 4 15 28 15 137 l0 133 -483 1 c-341 1 -482 -2 -483 -10z"/>
<path d="M3287 7763 c-3 -7 -2 -1358 2 -1374 1 -8 257 -6 265 1 10 10 15 60 6
65 -5 3 -5 19 0 35 5 17 5 43 0 59 -4 16 -6 32 -3 35 7 7 6 253 -1 265 -4 5
-2 12 3 15 5 4 7 21 4 40 l-5 33 208 -1 209 -1 0 -276 0 -276 138 0 c132 0
137 1 138 21 3 75 4 1343 1 1354 -3 9 -40 12 -138 12 -121 0 -134 -2 -135 -17
-1 -10 -2 -130 -4 -268 -1 -137 -3 -255 -4 -260 0 -7 -74 -10 -205 -10 l-205
0 0 52 c0 29 -2 57 -5 62 -4 5 -2 12 3 15 9 6 8 62 -2 72 -3 3 -1 19 3 35 6
19 5 29 -2 29 -7 0 -7 5 -1 13 5 6 8 23 6 37 -5 33 -5 36 -1 103 2 31 0 57 -3
57 -4 0 -3 16 1 34 4 19 5 37 2 40 -8 9 -270 7 -275 -1z"/>
<path d="M4489 7763 c-1 -5 -2 -315 -3 -691 -1 -599 1 -683 14 -686 24 -7 780
-3 781 3 0 3 2 64 2 134 l2 129 -26 5 c-14 2 -131 6 -260 6 l-234 2 0 135 0
135 220 1 220 1 0 139 0 139 -220 0 -220 0 -1 138 c-1 133 -1 137 20 138 12 0
123 0 249 0 l227 0 0 139 0 140 -385 0 c-212 0 -386 -3 -386 -7z"/>
<path d="M2108 6023 c-2 -5 -3 -321 -3 -703 l1 -695 139 0 140 0 2 305 c1 168
2 341 2 384 l1 80 73 -76 c39 -41 118 -124 175 -184 l103 -109 122 127 c68 69
146 151 174 182 29 31 54 52 56 48 2 -4 4 -177 3 -384 l-1 -377 140 2 141 1 0
703 0 703 -45 0 c-38 0 -50 -5 -68 -28 -12 -15 -37 -43 -55 -63 -18 -20 -67
-74 -108 -120 -41 -46 -86 -95 -100 -110 -14 -15 -52 -57 -85 -95 -33 -37 -77
-85 -97 -108 -21 -22 -38 -44 -38 -49 0 -4 -4 -5 -10 -2 -5 3 -10 -1 -10 -9 0
-25 -25 -19 -51 13 -23 27 -148 167 -199 222 -14 15 -50 55 -80 89 -30 35 -62
70 -70 79 -9 9 -49 53 -89 99 -71 79 -76 82 -117 82 -23 0 -44 -3 -46 -7z"/>
<path d="M4189 6025 c-3 -2 -22 -7 -43 -10 -58 -10 -143 -42 -211 -79 -61 -35
-185 -145 -185 -166 0 -5 -4 -10 -8 -10 -13 0 -89 -150 -106 -211 -26 -88 -25
-84 -38 -259 0 -3 1 -7 2 -10 1 -3 3 -21 5 -40 4 -49 19 -130 25 -137 2 -2 3
-6 4 -10 23 -98 100 -227 182 -303 80 -75 153 -116 259 -150 100 -31 99 -31
216 -34 93 -2 178 8 286 37 6 2 45 20 86 40 177 90 307 264 353 472 12 54 14
259 3 305 -6 25 -13 56 -15 70 -5 22 -13 44 -47 120 -6 14 -24 44 -39 67 -15
23 -28 44 -28 47 0 3 -21 28 -47 54 -147 148 -279 202 -509 208 -77 2 -143 2
-145 -1z m275 -304 c61 -21 114 -56 155 -100 26 -29 72 -98 76 -115 1 -6 4
-18 7 -26 3 -8 10 -30 16 -49 7 -21 10 -74 7 -135 -6 -124 -6 -126 -17 -126
-4 0 -8 -6 -8 -14 0 -20 -38 -90 -72 -130 -111 -135 -342 -175 -511 -89 -201
101 -274 383 -159 609 25 49 103 128 142 144 17 7 30 16 30 20 0 3 6 7 13 7 6
1 36 7 66 15 72 19 182 15 255 -11z"/>
<path d="M5073 5995 c0 -8 4 -15 9 -15 4 0 8 -9 8 -20 0 -11 5 -20 10 -20 6 0
10 -8 10 -17 0 -10 9 -33 20 -50 11 -18 17 -33 13 -33 -3 0 2 -9 12 -20 10
-11 15 -20 11 -20 -4 0 0 -12 8 -27 17 -30 126 -263 126 -269 0 -2 20 -45 44
-96 98 -206 146 -310 146 -313 0 -2 24 -54 54 -117 29 -62 63 -135 76 -163 12
-27 36 -77 52 -110 16 -33 29 -60 28 -60 -1 0 4 -12 11 -27 9 -22 18 -27 39
-24 32 4 50 13 50 27 0 6 14 41 31 77 17 37 60 128 94 202 34 74 81 175 104
223 22 49 41 90 41 92 0 2 24 54 54 116 85 180 147 316 151 329 1 3 12 28 25
55 13 28 22 52 21 54 -2 2 1 7 6 10 10 7 103 208 103 222 0 6 -65 8 -157 7
l-156 -3 -43 -85 c-23 -47 -64 -130 -90 -185 -26 -55 -51 -103 -56 -106 -5 -3
-9 -10 -9 -15 2 -12 -161 -344 -168 -344 -4 1 -28 49 -56 108 -27 59 -56 115
-65 126 -8 10 -14 20 -12 22 1 2 -39 89 -89 192 -50 103 -102 211 -116 240
l-25 52 -158 0 c-133 0 -157 -2 -157 -15z"/>
<path d="M6606 5328 c1 -376 2 -688 3 -695 1 -8 41 -11 138 -10 l137 2 0 690
0 690 -139 3 -140 3 1 -683z"/>
<path d="M7119 6008 c-1 -2 -2 -312 -3 -691 -1 -604 1 -688 14 -691 23 -7 780
-3 781 3 4 35 2 264 -2 267 -4 2 -121 4 -262 4 l-255 1 2 137 1 137 200 2
c110 0 209 2 221 2 20 1 20 6 20 136 0 74 -2 136 -5 136 -3 1 -103 2 -221 3
l-215 1 -1 133 c-1 73 3 135 7 138 5 3 117 5 249 5 l240 -1 0 140 0 140 -385
0 c-212 0 -386 -1 -386 -2z"/>
<path d="M2108 4238 c-2 -7 -3 -319 -3 -693 l1 -680 249 1 c313 1 341 4 460
55 17 7 32 13 35 13 9 2 85 51 109 71 115 94 211 253 235 385 4 19 9 46 11 60
6 33 6 210 0 220 -3 4 -7 25 -11 46 -11 70 -68 207 -101 242 -7 7 -13 17 -13
21 0 12 -98 112 -139 141 -18 14 -52 35 -75 46 -137 70 -170 76 -482 81 -217
3 -272 1 -276 -9z m529 -282 c52 -12 138 -64 175 -106 41 -46 87 -127 94 -164
13 -71 20 -132 18 -150 -11 -84 -16 -107 -36 -156 -24 -60 -25 -62 -81 -123
-36 -39 -64 -59 -127 -87 -39 -18 -60 -22 -139 -26 -40 -1 -75 -5 -77 -7 -2
-2 -21 -1 -42 2 l-37 6 0 410 -1 410 56 5 c51 5 146 -2 197 -14z"/>
<path d="M3435 4238 c-2 -7 -3 -319 -2 -693 l2 -680 295 -1 c162 0 313 4 335
8 300 64 430 453 218 653 l-35 33 30 27 c24 22 70 96 77 125 45 194 -6 371
-133 465 -92 68 -136 75 -478 75 -235 0 -306 -3 -309 -12z m580 -283 c66 -36
89 -127 48 -195 -29 -50 -73 -64 -208 -65 -66 -1 -126 0 -132 3 -10 3 -13 40
-13 136 0 73 2 135 4 137 2 2 63 4 135 3 108 0 136 -4 166 -19z m21 -562 c80
-57 79 -172 -2 -227 -35 -23 -44 -25 -180 -25 l-144 0 0 138 0 138 148 -1
c135 -1 150 -3 178 -23z"/>
</g>
</svg>
