<?xml version="1.0" encoding="iso-8859-1"?>
<!DOCTYPE svg PUBLIC "-//W3C//DTD SVG 1.1//EN" "http://www.w3.org/Graphics/SVG/1.1/DTD/svg11.dtd">
<svg version="1.1" id="Capa_1" xmlns="http://www.w3.org/2000/svg" xmlns:xlink="http://www.w3.org/1999/xlink" x="0px" y="0px"
	 viewBox="0 0 190 190" style="enable-background:new 0 0 190 190;" xml:space="preserve">
<path d="M147.974,185.803c-1.478,0-2.962-0.356-4.334-1.077L95,159.154l-48.64,25.571c-3.153,1.658-6.903,1.388-9.789-0.708
	c-2.882-2.095-4.299-5.578-3.695-9.09l9.288-54.161L2.814,82.41c-2.552-2.487-3.453-6.138-2.352-9.527s3.977-5.813,7.503-6.325
	l54.381-7.902L86.665,9.377C88.243,6.182,91.437,4.197,95,4.197s6.757,1.985,8.334,5.181c0,0,0,0,0.001,0l24.319,49.278
	l54.381,7.902c3.526,0.512,6.401,2.936,7.503,6.325s0.2,7.04-2.352,9.527l-39.351,38.357l9.289,54.162
	c0.603,3.512-0.814,6.995-3.696,9.089C151.799,185.202,149.893,185.803,147.974,185.803z M95,154.895c0.319,0,0.64,0.077,0.931,0.23
	l49.57,26.061c1.823,0.958,3.907,0.809,5.576-0.403c1.666-1.211,2.453-3.146,2.105-5.177l-9.468-55.198
	c-0.11-0.648,0.104-1.311,0.575-1.77l40.104-39.091c1.477-1.438,1.977-3.467,1.34-5.427c-0.637-1.96-2.234-3.307-4.272-3.603
	l-55.422-8.053c-0.652-0.094-1.215-0.503-1.507-1.094L99.747,11.148C98.836,9.3,97.061,8.197,95,8.197s-3.836,1.103-4.747,2.951
	L65.468,61.369c-0.292,0.59-0.854,1-1.507,1.094L8.54,70.516c-2.039,0.296-3.637,1.643-4.273,3.603
	c-0.637,1.959-0.137,3.988,1.34,5.427l40.104,39.091c0.471,0.459,0.686,1.122,0.575,1.77l-9.467,55.198
	c-0.349,2.031,0.438,3.966,2.104,5.178c1.667,1.211,3.753,1.361,5.576,0.403l49.57-26.061C94.36,154.971,94.681,154.895,95,154.895z
	 M142.178,170.715c-0.633,0-1.255-0.299-1.644-0.857l-45.541-65.432l-45.932,65.438c-0.634,0.904-1.882,1.123-2.786,0.488
	c-0.903-0.635-1.122-1.882-0.487-2.786l45.974-65.499L15.287,79.569c-1.06-0.312-1.666-1.423-1.354-2.483
	c0.313-1.059,1.423-1.667,2.483-1.354L93,98.262V19.995c0-1.104,0.896-2,2-2s2,0.896,2,2v78.27l74.524-21.829
	c1.056-0.31,2.171,0.296,2.481,1.357c0.311,1.06-0.297,2.171-1.356,2.481l-74.421,21.798l45.589,65.5
	c0.631,0.907,0.407,2.153-0.499,2.784C142.97,170.599,142.572,170.715,142.178,170.715z"/>
<g>
</g>
<g>
</g>
<g>
</g>
<g>
</g>
<g>
</g>
<g>
</g>
<g>
</g>
<g>
</g>
<g>
</g>
<g>
</g>
<g>
</g>
<g>
</g>
<g>
</g>
<g>
</g>
<g>
</g>
</svg>
